<?xml version="1.0" encoding="utf-8"?>
<svg version="1.1" id="Capa_1" x="0px" y="0px" viewBox="0 0 512 512" style="enable-background:new 0 0 512 512;" xmlns="http://www.w3.org/2000/svg">
  <g>
    <path d="M 512 304 C 512 291.179 506.901 279.232 498.112 270.421 C 508.075 259.52 513.152 244.906 511.765 229.696 C 509.269 202.581 484.842 181.333 456.128 181.333 L 324.352 181.333 C 330.88 161.514 341.333 125.184 341.333 96 C 341.333 49.728 302.016 10.667 277.333 10.667 C 255.189 10.667 239.338 23.147 238.677 23.659 C 236.138 25.686 234.666 28.758 234.666 32 L 234.666 104.341 L 173.205 237.44 L 170.666 238.741 L 170.666 234.666 C 170.666 228.778 165.887 223.999 159.999 223.999 L 53.333 223.999 C 23.915 224 0 247.915 0 277.333 L 0 448 C 0 477.419 23.915 501.333 53.333 501.333 L 117.333 501.333 C 140.394 501.333 160.106 486.613 167.53 466.069 C 185.28 475.2 209.173 480 224 480 L 419.819 480 C 443.051 480 463.382 464.341 468.16 442.752 C 470.613 431.616 469.184 420.416 464.32 410.688 C 480.064 402.773 490.667 386.496 490.667 368 C 490.667 360.448 488.939 353.216 485.675 346.688 C 501.419 338.752 512 322.496 512 304 Z M 467.008 330.325 C 462.891 330.816 459.413 333.61 458.091 337.557 C 456.79 341.504 457.878 345.834 460.907 348.693 C 466.326 353.792 469.334 360.661 469.334 368 C 469.334 381.461 459.158 392.768 445.697 394.325 C 441.58 394.816 438.102 397.61 436.78 401.557 C 435.479 405.504 436.567 409.834 439.596 412.693 C 446.615 419.306 449.431 428.586 447.319 438.144 C 444.695 450.048 433.132 458.667 419.82 458.667 L 224 458.667 C 206.677 458.667 177.621 450.539 167.552 440.448 C 164.501 437.419 159.893 436.523 155.925 438.144 C 151.936 439.787 149.333 443.691 149.333 448 C 149.333 465.643 134.976 480 117.333 480 L 53.333 480 C 35.69 480 21.333 465.643 21.333 448 L 21.333 277.333 C 21.333 259.69 35.69 245.333 53.333 245.333 L 149.333 245.333 L 149.333 256 C 149.333 259.691 151.253 263.125 154.41 265.088 C 157.525 266.965 161.45 267.157 164.778 265.536 L 186.111 254.869 C 188.266 253.802 189.994 252.01 191.018 249.813 L 255.018 111.146 C 255.658 109.738 255.999 108.202 255.999 106.666 L 255.999 37.781 C 260.437 35.328 268.139 32 277.333 32 C 289.024 32 320 61.056 320 96 C 320 133.547 299.563 187.669 299.371 188.203 C 298.134 191.467 298.56 195.158 300.544 198.059 C 302.549 200.939 305.835 202.667 309.333 202.667 L 456.128 202.667 C 473.92 202.667 489.024 215.403 490.517 231.659 C 491.648 243.819 485.802 255.382 475.328 261.846 C 472.064 263.851 470.123 267.478 470.272 271.339 C 470.421 275.2 472.64 278.656 476.053 280.427 C 485.077 285.014 490.666 294.059 490.666 304 C 490.667 317.461 480.491 328.768 467.008 330.325 Z" style="fill: rgb(238, 214, 199);"/>
    <path d="M 160 245.333 C 154.112 245.333 149.333 250.112 149.333 256 L 149.333 448 C 149.333 453.888 154.112 458.667 160 458.667 C 165.888 458.667 170.667 453.888 170.667 448 L 170.667 256 C 170.667 250.112 165.888 245.333 160 245.333 Z" style="fill: rgb(236, 220, 207);"/>
  </g>
</svg>